<?xml version="1.0" encoding="utf-8"?><svg version="1.1" id="Layer_1" xmlns="http://www.w3.org/2000/svg" xmlns:xlink="http://www.w3.org/1999/xlink" x="0px" y="0px" viewBox="0 0 102.33 122.88" style="enable-background:new 0 0 102.33 122.88" xml:space="preserve"><style type="text/css">.st0{fill-rule:evenodd;clip-rule:evenodd;fill:#EE4323;}</style><g><path class="st0" d="M32.92,122.87c-7.37-3.18-14.26-11.28-14.28-19.56c-0.02-9.03,5.7-16.7,12.82-21.73 c-0.86,3.23-1.32,6.19,0.8,9.08c1.97,2.69,5.42,3.99,8.68,3.29c7.61-1.67,7.96-10.04,3.45-14.92c-4.46-4.83-8.78-10.29-7.08-17.29 c0.85-3.51,3.01-6.8,5.74-9.15c-2.1,5.52,3.87,10.96,7.8,13.67c6.82,4.7,14.3,8.26,20.57,13.77c6.59,5.79,11.46,13.62,10.48,22.71 c-1.07,9.85-8.89,16.69-17.66,20.15c18.54-4.09,37.71-18.49,38.1-39.05c0.33-16.92-11.28-29.94-25.66-37.4l-0.75-0.41 c0.39,0.96,0.52,1.77,0.51,2.5c0.13-0.54,0.22-1.09,0.24-1.66c0,0.68-0.09,1.35-0.26,2.01l0.02-0.35c-0.21,0.9-0.57,1.76-1.06,2.54 l0.21-0.23c-2.87,4.76-10.63,5.79-14.47,0.86c-6.17-7.92,0.13-16.47,1.01-24.86C63.21,16.32,56.61,6.11,48.43,0 c4.5,7.29-1.43,16.93-6.18,22.31c-4.6,5.22-10.2,9.59-15.28,14.33c-5.46,5.1-10.71,10.47-15.19,16.45 C2.8,65.07-2.69,80.14,1.35,95.08C5.38,110.01,18.31,119.51,32.92,122.87L32.92,122.87L32.92,122.87z"/></g></svg>